<svg xmlns="http://www.w3.org/2000/svg" width="640" height="480" viewBox="0 0 640 480">
<rect width="100%" height="100%" fill="#F7F7F2"/>
<polygon points="138.62,94.98 120.75,155.66 101.12,113.04" fill="#D4B76B" stroke="#23303A" stroke-width="0.8" opacity="0.9"/>
<polygon points="378.79,278.77 445.15,278.39 364.72,317.53" fill="#3A8C68" stroke="#23303A" stroke-width="0.8" opacity="0.9"/>
<polygon points="378.79,278.77 364.72,317.53 330.17,254.98" fill="#509A5E" stroke="#23303A" stroke-width="0.8" opacity="0.9"/>
<polygon points="500.46,274.83 567.70,251.70 596.85,322.32" fill="#347784" stroke="#23303A" stroke-width="0.8" opacity="0.9"/>
<polygon points="510.78,444.91 222.10,404.58 394.02,372.75" fill="#39896D" stroke="#23303A" stroke-width="0.8" opacity="0.9"/>
<polygon points="138.62,94.98 101.12,113.04 97.75,49.89" fill="#D4B66B" stroke="#23303A" stroke-width="0.8" opacity="0.9"/>
<polygon points="138.62,94.98 97.75,49.89 341.73,72.81" fill="#D4B76B" stroke="#23303A" stroke-width="0.8" opacity="0.9"/>
<polygon points="330.17,254.98 364.72,317.53 355.42,340.71" fill="#3C955C" stroke="#23303A" stroke-width="0.8" opacity="0.9"/>
<polygon points="364.72,317.53 394.02,372.75 355.42,340.71" fill="#368079" stroke="#23303A" stroke-width="0.8" opacity="0.9"/>
<polygon points="120.75,155.66 54.01,130.16 101.12,113.04" fill="#B5B46A" stroke="#23303A" stroke-width="0.8" opacity="0.9"/>
<polygon points="407.42,126.06 533.46,129.85 486.24,172.50" fill="#549B5F" stroke="#23303A" stroke-width="0.8" opacity="0.9"/>
<polygon points="96.90,381.56 134.53,368.90 131.50,420.50" fill="#CCBBA9" stroke="#23303A" stroke-width="0.8" opacity="0.9"/>
<polygon points="134.53,368.90 222.10,404.58 131.50,420.50" fill="#9E754E" stroke="#23303A" stroke-width="0.8" opacity="0.9"/>
<polygon points="510.78,444.91 131.50,420.50 222.10,404.58" fill="#A5B068" stroke="#23303A" stroke-width="0.8" opacity="0.9"/>
<polygon points="558.87,87.04 596.85,322.32 580.11,230.48" fill="#357B80" stroke="#23303A" stroke-width="0.8" opacity="0.9"/>
<polygon points="567.70,251.70 580.11,230.48 596.85,322.32" fill="#32708F" stroke="#23303A" stroke-width="0.8" opacity="0.9"/>
<polygon points="96.90,381.56 52.46,295.00 134.53,368.90" fill="#CBB9A6" stroke="#23303A" stroke-width="0.8" opacity="0.9"/>
<polygon points="558.87,87.04 565.74,183.65 533.46,129.85" fill="#378474" stroke="#23303A" stroke-width="0.8" opacity="0.9"/>
<polygon points="558.87,87.04 580.11,230.48 565.74,183.65" fill="#347884" stroke="#23303A" stroke-width="0.8" opacity="0.9"/>
<polygon points="533.46,129.85 565.74,183.65 486.24,172.50" fill="#378473" stroke="#23303A" stroke-width="0.8" opacity="0.9"/>
<polygon points="189.28,202.93 200.93,237.75 124.84,210.33" fill="#A67F53" stroke="#23303A" stroke-width="0.8" opacity="0.9"/>
<polygon points="189.28,202.93 297.21,234.16 200.93,237.75" fill="#B18D59" stroke="#23303A" stroke-width="0.8" opacity="0.9"/>
<polygon points="341.73,72.81 376.81,69.57 407.42,126.06" fill="#C2B86B" stroke="#23303A" stroke-width="0.8" opacity="0.9"/>
<polygon points="341.73,72.81 97.75,49.89 376.81,69.57" fill="#D7BD6E" stroke="#23303A" stroke-width="0.8" opacity="0.9"/>
<polygon points="96.90,381.56 48.16,409.52 48.22,383.39" fill="#A07B5C" stroke="#23303A" stroke-width="0.8" opacity="0.9"/>
<polygon points="96.90,381.56 131.50,420.50 48.16,409.52" fill="#A27C5E" stroke="#23303A" stroke-width="0.8" opacity="0.9"/>
<polygon points="330.17,254.98 355.42,340.71 318.67,366.38" fill="#3B935F" stroke="#23303A" stroke-width="0.8" opacity="0.9"/>
<polygon points="394.02,372.75 222.10,404.58 318.67,366.38" fill="#3A8E66" stroke="#23303A" stroke-width="0.8" opacity="0.9"/>
<polygon points="394.02,372.75 318.67,366.38 355.42,340.71" fill="#367D7C" stroke="#23303A" stroke-width="0.8" opacity="0.9"/>
<polygon points="200.93,237.75 297.21,234.16 196.86,326.20" fill="#A37C51" stroke="#23303A" stroke-width="0.8" opacity="0.9"/>
<polygon points="407.42,126.06 550.29,54.10 533.46,129.85" fill="#69A161" stroke="#23303A" stroke-width="0.8" opacity="0.9"/>
<polygon points="407.42,126.06 376.81,69.57 550.29,54.10" fill="#A4B068" stroke="#23303A" stroke-width="0.8" opacity="0.9"/>
<polygon points="558.87,87.04 533.46,129.85 550.29,54.10" fill="#3E965C" stroke="#23303A" stroke-width="0.8" opacity="0.9"/>
<polygon points="97.75,49.89 550.29,54.10 376.81,69.57" fill="#B9B56A" stroke="#23303A" stroke-width="0.8" opacity="0.9"/>
<polygon points="96.90,381.56 48.22,383.39 42.27,319.18" fill="#AD8D71" stroke="#23303A" stroke-width="0.8" opacity="0.9"/>
<polygon points="96.90,381.56 42.27,319.18 52.46,295.00" fill="#AC8C70" stroke="#23303A" stroke-width="0.8" opacity="0.9"/>
<polygon points="48.22,383.39 48.16,409.52 42.27,319.18" fill="#A27B51" stroke="#23303A" stroke-width="0.8" opacity="0.9"/>
<polygon points="54.01,130.16 52.46,295.00 42.27,319.18" fill="#C09E60" stroke="#23303A" stroke-width="0.8" opacity="0.9"/>
<polygon points="134.53,368.90 222.51,357.10 222.10,404.58" fill="#A88254" stroke="#23303A" stroke-width="0.8" opacity="0.9"/>
<polygon points="134.53,368.90 196.86,326.20 222.51,357.10" fill="#B2947A" stroke="#23303A" stroke-width="0.8" opacity="0.9"/>
<polygon points="138.62,94.98 173.93,146.46 120.75,155.66" fill="#C9AA65" stroke="#23303A" stroke-width="0.8" opacity="0.9"/>
<polygon points="138.62,94.98 341.73,72.81 173.93,146.46" fill="#CEAF68" stroke="#23303A" stroke-width="0.8" opacity="0.9"/>
<polygon points="120.75,155.66 173.93,146.46 124.84,210.33" fill="#C19F61" stroke="#23303A" stroke-width="0.8" opacity="0.9"/>
<polygon points="341.73,72.81 297.21,234.16 173.93,146.46" fill="#D1B369" stroke="#23303A" stroke-width="0.8" opacity="0.9"/>
<polygon points="189.28,202.93 124.84,210.33 173.93,146.46" fill="#B38E59" stroke="#23303A" stroke-width="0.8" opacity="0.9"/>
<polygon points="189.28,202.93 173.93,146.46 297.21,234.16" fill="#BE9C5F" stroke="#23303A" stroke-width="0.8" opacity="0.9"/>
<polygon points="120.75,155.66 73.08,180.86 54.01,130.16" fill="#A7B168" stroke="#23303A" stroke-width="0.8" opacity="0.9"/>
<polygon points="54.01,130.16 73.08,180.86 52.46,295.00" fill="#D2BC6D" stroke="#23303A" stroke-width="0.8" opacity="0.9"/>
<polygon points="120.75,155.66 124.84,210.33 105.72,187.24" fill="#C6A664" stroke="#23303A" stroke-width="0.8" opacity="0.9"/>
<polygon points="120.75,155.66 105.72,187.24 73.08,180.86" fill="#D6BD6E" stroke="#23303A" stroke-width="0.8" opacity="0.9"/>
<polygon points="500.46,274.83 455.79,339.28 445.15,278.39" fill="#368079" stroke="#23303A" stroke-width="0.8" opacity="0.9"/>
<polygon points="500.46,274.83 596.85,322.32 455.79,339.28" fill="#357B80" stroke="#23303A" stroke-width="0.8" opacity="0.9"/>
<polygon points="445.15,278.39 455.79,339.28 364.72,317.53" fill="#378374" stroke="#23303A" stroke-width="0.8" opacity="0.9"/>
<polygon points="510.78,444.91 394.02,372.75 455.79,339.28" fill="#337687" stroke="#23303A" stroke-width="0.8" opacity="0.9"/>
<polygon points="510.78,444.91 455.79,339.28 596.85,322.32" fill="#347784" stroke="#23303A" stroke-width="0.8" opacity="0.9"/>
<polygon points="364.72,317.53 455.79,339.28 394.02,372.75" fill="#357D7D" stroke="#23303A" stroke-width="0.8" opacity="0.9"/>
<polygon points="134.53,368.90 52.46,295.00 91.62,259.36" fill="#B59980" stroke="#23303A" stroke-width="0.8" opacity="0.9"/>
<polygon points="134.53,368.90 91.62,259.36 196.86,326.20" fill="#C2AC96" stroke="#23303A" stroke-width="0.8" opacity="0.9"/>
<polygon points="200.93,237.75 91.62,259.36 124.84,210.33" fill="#9F764F" stroke="#23303A" stroke-width="0.8" opacity="0.9"/>
<polygon points="200.93,237.75 196.86,326.20 91.62,259.36" fill="#A37F61" stroke="#23303A" stroke-width="0.8" opacity="0.9"/>
<polygon points="52.46,295.00 73.08,180.86 91.62,259.36" fill="#B5915B" stroke="#23303A" stroke-width="0.8" opacity="0.9"/>
<polygon points="124.84,210.33 91.62,259.36 105.72,187.24" fill="#B18D59" stroke="#23303A" stroke-width="0.8" opacity="0.9"/>
<polygon points="73.08,180.86 105.72,187.24 91.62,259.36" fill="#C7A764" stroke="#23303A" stroke-width="0.8" opacity="0.9"/>
<polygon points="500.46,274.83 445.15,278.39 465.69,252.32" fill="#378474" stroke="#23303A" stroke-width="0.8" opacity="0.9"/>
<polygon points="101.12,113.04 67.23,52.61 97.75,49.89" fill="#D5BD6D" stroke="#23303A" stroke-width="0.8" opacity="0.9"/>
<polygon points="101.12,113.04 54.01,130.16 67.23,52.61" fill="#A7B168" stroke="#23303A" stroke-width="0.8" opacity="0.9"/>
<polygon points="500.46,274.83 516.29,225.80 567.70,251.70" fill="#357A81" stroke="#23303A" stroke-width="0.8" opacity="0.9"/>
<polygon points="500.46,274.83 465.69,252.32 516.29,225.80" fill="#378177" stroke="#23303A" stroke-width="0.8" opacity="0.9"/>
<polygon points="567.70,251.70 516.29,225.80 580.11,230.48" fill="#33728B" stroke="#23303A" stroke-width="0.8" opacity="0.9"/>
<polygon points="486.24,172.50 565.74,183.65 516.29,225.80" fill="#367F7A" stroke="#23303A" stroke-width="0.8" opacity="0.9"/>
<polygon points="580.11,230.48 516.29,225.80 565.74,183.65" fill="#32718C" stroke="#23303A" stroke-width="0.8" opacity="0.9"/>
<polygon points="330.17,254.98 258.32,354.16 297.21,234.16" fill="#BFB76B" stroke="#23303A" stroke-width="0.8" opacity="0.9"/>
<polygon points="330.17,254.98 318.67,366.38 258.32,354.16" fill="#71A362" stroke="#23303A" stroke-width="0.8" opacity="0.9"/>
<polygon points="222.10,404.58 258.32,354.16 318.67,366.38" fill="#75A462" stroke="#23303A" stroke-width="0.8" opacity="0.9"/>
<polygon points="222.10,404.58 222.51,357.10 258.32,354.16" fill="#D9BE6E" stroke="#23303A" stroke-width="0.8" opacity="0.9"/>
<polygon points="297.21,234.16 258.32,354.16 196.86,326.20" fill="#BF9D60" stroke="#23303A" stroke-width="0.8" opacity="0.9"/>
<polygon points="196.86,326.20 258.32,354.16 222.51,357.10" fill="#B5915B" stroke="#23303A" stroke-width="0.8" opacity="0.9"/>
<polygon points="378.79,278.77 447.82,217.71 445.15,278.39" fill="#3A8E65" stroke="#23303A" stroke-width="0.8" opacity="0.9"/>
<polygon points="445.15,278.39 447.82,217.71 465.69,252.32" fill="#398A6C" stroke="#23303A" stroke-width="0.8" opacity="0.9"/>
<polygon points="407.42,126.06 486.24,172.50 447.82,217.71" fill="#5B9D5F" stroke="#23303A" stroke-width="0.8" opacity="0.9"/>
<polygon points="486.24,172.50 516.29,225.80 447.82,217.71" fill="#398B69" stroke="#23303A" stroke-width="0.8" opacity="0.9"/>
<polygon points="465.69,252.32 447.82,217.71 516.29,225.80" fill="#38876F" stroke="#23303A" stroke-width="0.8" opacity="0.9"/>
<polygon points="378.79,278.77 330.17,254.98 329.37,220.64" fill="#88A965" stroke="#23303A" stroke-width="0.8" opacity="0.9"/>
<polygon points="378.79,278.77 329.37,220.64 447.82,217.71" fill="#639F60" stroke="#23303A" stroke-width="0.8" opacity="0.9"/>
<polygon points="341.73,72.81 407.42,126.06 329.37,220.64" fill="#BEB76B" stroke="#23303A" stroke-width="0.8" opacity="0.9"/>
<polygon points="341.73,72.81 329.37,220.64 297.21,234.16" fill="#D1BC6D" stroke="#23303A" stroke-width="0.8" opacity="0.9"/>
<polygon points="407.42,126.06 447.82,217.71 329.37,220.64" fill="#8AA965" stroke="#23303A" stroke-width="0.8" opacity="0.9"/>
<polygon points="330.17,254.98 297.21,234.16 329.37,220.64" fill="#C3B86B" stroke="#23303A" stroke-width="0.8" opacity="0.9"/>
<circle cx="138.62" cy="94.98" r="3" fill="#111111"/>
<circle cx="500.46" cy="274.83" r="3" fill="#111111"/>
<circle cx="120.75" cy="155.66" r="3" fill="#111111"/>
<circle cx="96.90" cy="381.56" r="3" fill="#111111"/>
<circle cx="134.53" cy="368.90" r="3" fill="#111111"/>
<circle cx="101.12" cy="113.04" r="3" fill="#111111"/>
<circle cx="378.79" cy="278.77" r="3" fill="#111111"/>
<circle cx="445.15" cy="278.39" r="3" fill="#111111"/>
<circle cx="510.78" cy="444.91" r="3" fill="#111111"/>
<circle cx="341.73" cy="72.81" r="3" fill="#111111"/>
<circle cx="48.22" cy="383.39" r="3" fill="#111111"/>
<circle cx="189.28" cy="202.93" r="3" fill="#111111"/>
<circle cx="407.42" cy="126.06" r="3" fill="#111111"/>
<circle cx="330.17" cy="254.98" r="3" fill="#111111"/>
<circle cx="200.93" cy="237.75" r="3" fill="#111111"/>
<circle cx="364.72" cy="317.53" r="3" fill="#111111"/>
<circle cx="558.87" cy="87.04" r="3" fill="#111111"/>
<circle cx="394.02" cy="372.75" r="3" fill="#111111"/>
<circle cx="567.70" cy="251.70" r="3" fill="#111111"/>
<circle cx="596.85" cy="322.32" r="3" fill="#111111"/>
<circle cx="533.46" cy="129.85" r="3" fill="#111111"/>
<circle cx="222.10" cy="404.58" r="3" fill="#111111"/>
<circle cx="97.75" cy="49.89" r="3" fill="#111111"/>
<circle cx="355.42" cy="340.71" r="3" fill="#111111"/>
<circle cx="54.01" cy="130.16" r="3" fill="#111111"/>
<circle cx="486.24" cy="172.50" r="3" fill="#111111"/>
<circle cx="131.50" cy="420.50" r="3" fill="#111111"/>
<circle cx="580.11" cy="230.48" r="3" fill="#111111"/>
<circle cx="52.46" cy="295.00" r="3" fill="#111111"/>
<circle cx="565.74" cy="183.65" r="3" fill="#111111"/>
<circle cx="124.84" cy="210.33" r="3" fill="#111111"/>
<circle cx="297.21" cy="234.16" r="3" fill="#111111"/>
<circle cx="376.81" cy="69.57" r="3" fill="#111111"/>
<circle cx="48.16" cy="409.52" r="3" fill="#111111"/>
<circle cx="318.67" cy="366.38" r="3" fill="#111111"/>
<circle cx="196.86" cy="326.20" r="3" fill="#111111"/>
<circle cx="550.29" cy="54.10" r="3" fill="#111111"/>
<circle cx="42.27" cy="319.18" r="3" fill="#111111"/>
<circle cx="222.51" cy="357.10" r="3" fill="#111111"/>
<circle cx="173.93" cy="146.46" r="3" fill="#111111"/>
<circle cx="73.08" cy="180.86" r="3" fill="#111111"/>
<circle cx="105.72" cy="187.24" r="3" fill="#111111"/>
<circle cx="455.79" cy="339.28" r="3" fill="#111111"/>
<circle cx="91.62" cy="259.36" r="3" fill="#111111"/>
<circle cx="465.69" cy="252.32" r="3" fill="#111111"/>
<circle cx="67.23" cy="52.61" r="3" fill="#111111"/>
<circle cx="516.29" cy="225.80" r="3" fill="#111111"/>
<circle cx="258.32" cy="354.16" r="3" fill="#111111"/>
<circle cx="447.82" cy="217.71" r="3" fill="#111111"/>
<circle cx="329.37" cy="220.64" r="3" fill="#111111"/>
</svg>
